<svg xmlns="http://www.w3.org/2000/svg" xmlns:xlink="http://www.w3.org/1999/xlink" viewBox="0 0 38 34"><defs><style>.cls-1,.cls-2{fill:none;}.cls-1{clip-rule:evenodd;}.cls-3{clip-path:url(#clip-path);}.cls-4{clip-path:url(#clip-path-2);}.cls-5{fill:#010101;}.cls-6{clip-path:url(#clip-path-3);}</style><clipPath id="clip-path" transform="translate(-239 -315)"><path class="cls-1" d="M245.84,336.58h3.76a.89.89,0,0,1,.87.95v3l3.07-3.63a1.09,1.09,0,0,1,.7-.34h15.84V321.9H245.84ZM249.6,344c-.17,0-.26-.09-.35-.09a.92.92,0,0,1-.61-.86v-4.58h-3.76a.89.89,0,0,1-.88-.94V321a.89.89,0,0,1,.88-.95H271a1,1,0,0,1,1,.95v16.58a1,1,0,0,1-1,.94H254.68l-4.38,5.18A1.07,1.07,0,0,1,249.6,344Z"/></clipPath><clipPath id="clip-path-2" transform="translate(-239 -315)"><rect class="cls-2" width="1024" height="1024"/></clipPath><clipPath id="clip-path-3" transform="translate(-239 -315)"><path class="cls-1" d="M262.06,328.8a.81.81,0,1,1,.8.8A.8.8,0,0,1,262.06,328.8Zm-4.84,0c0-.44.72-.8,1.61-.8s1.61.36,1.61.8-.72.8-1.61.8S257.22,329.24,257.22,328.8Zm-3.22,0a.81.81,0,1,1,.81.8A.8.8,0,0,1,254,328.8Z"/></clipPath></defs><title>Asset 2</title><g id="Layer_2" data-name="Layer 2"><g id="Layer_1-2" data-name="Layer 1"><g class="cls-3"><g class="cls-4"><rect class="cls-5" width="38" height="34"/></g></g><g class="cls-6"><g class="cls-4"><rect class="cls-5" x="10" y="8" width="19.67" height="11.6"/></g></g></g></g></svg>