<svg xmlns="http://www.w3.org/2000/svg" xmlns:xlink="http://www.w3.org/1999/xlink" viewBox="0 0 21 15.25"><defs><style>.cls-1,.cls-2,.cls-4,.cls-6{fill:none;}.cls-2{clip-rule:evenodd;}.cls-3{clip-path:url(#clip-path);}.cls-4,.cls-6{stroke:#010101;stroke-miterlimit:10;}.cls-5{clip-path:url(#clip-path-2);}.cls-6{stroke-width:2px;}.cls-7{clip-path:url(#clip-path-4);}.cls-8{clip-path:url(#clip-path-6);}.cls-9{clip-path:url(#clip-path-8);}</style><clipPath id="clip-path" transform="translate(-523.5 -594.5)"><rect class="cls-1" width="1024" height="1024"/></clipPath><clipPath id="clip-path-2" transform="translate(-523.5 -594.5)"><path class="cls-2" d="M542.62,607.07l-5.24-5.16,5.24-4.79Zm-16.24-21h27.24v32H526.38Z"/></clipPath><clipPath id="clip-path-4" transform="translate(-523.5 -594.5)"><path class="cls-2" d="M541.62,596.33,534,603.19l-7.69-6.86Zm-26.31-11h37.31v28.86H515.31Z"/></clipPath><clipPath id="clip-path-6" transform="translate(-523.5 -594.5)"><path class="cls-2" d="M525.31,597.12l5.31,4.79-5.31,5.16Zm-11-11h27.31v32H514.31Z"/></clipPath><clipPath id="clip-path-8" transform="translate(-523.5 -594.5)"><path class="cls-2" d="M531.56,602.82l1.94,1.7a.72.72,0,0,0,.5.19.74.74,0,0,0,.44-.19l1.94-1.7,5.31,5.16H526.25Zm-16.31-11h37.44V619H515.25Z"/></clipPath></defs><title>EmailAsset 4</title><g id="Layer_2" data-name="Layer 2"><g id="Layer_1-2" data-name="Layer 1"><g class="cls-3"><path class="cls-4" d="M543.31,595H524.62a.63.63,0,0,0-.62.67v12.92a.63.63,0,0,0,.62.66h18.69a.68.68,0,0,0,.69-.66V595.67A.68.68,0,0,0,543.31,595Z" transform="translate(-523.5 -594.5)"/></g><g class="cls-5"><g class="cls-3"><polygon class="cls-6" points="19.13 12.57 13.88 7.42 19.13 2.62 19.13 12.57"/></g></g><g class="cls-7"><g class="cls-3"><polygon class="cls-6" points="18.13 1.83 10.5 8.69 2.81 1.83 18.13 1.83"/></g></g><g class="cls-8"><g class="cls-3"><polygon class="cls-6" points="1.81 2.62 7.13 7.42 1.81 12.57 1.81 2.62"/></g></g><g class="cls-9"><g class="cls-3"><path class="cls-6" d="M531.56,602.82l1.94,1.7a.72.72,0,0,0,.5.19.74.74,0,0,0,.44-.19l1.94-1.7,5.31,5.16H526.25Z" transform="translate(-523.5 -594.5)"/></g></g></g></g></svg>