<svg xmlns="http://www.w3.org/2000/svg" xmlns:xlink="http://www.w3.org/1999/xlink" viewBox="0 0 29.47 29.8"><defs><style>.cls-1,.cls-2{fill:none;}.cls-1{clip-rule:evenodd;}.cls-3{clip-path:url(#clip-path);}.cls-4{clip-path:url(#clip-path-2);}.cls-5{fill:#010101;}</style><clipPath id="clip-path" transform="translate(-546 -536)"><path class="cls-1" d="M554.31,542.48a8.52,8.52,0,0,0-1.15,1.1l-.2.21c-.47.55-.61.68-.41,1.51v.14a17.71,17.71,0,0,0,13.61,13.85h.07c.88.2,1,.07,1.49-.49l.27-.2c.21-.21.82-.83,1-1.1-.2-.69-1-3-3.12-3.52l-1.76,1.79a.79.79,0,0,1-.94.07c-.48-.34-.89-.62-1.22-.82a14.14,14.14,0,0,1-3-2.35,17.22,17.22,0,0,1-2.31-3c-.2-.41-.47-.76-.81-1.31a.66.66,0,0,1,.14-.89l1.76-1.8C557.23,543.58,554.92,542.68,554.31,542.48Zm12.53,18.32a4,4,0,0,1-.88-.07,17,17,0,0,1-9.68-5.3,17.3,17.3,0,0,1-5.15-9.85,2.51,2.51,0,0,1,.81-2.83l.14-.2c.68-.69,1.08-1.31,1.83-1.52,0-.07.74-.07,2,.55a5.94,5.94,0,0,1,3.32,4.27.69.69,0,0,1-.14.62l-1.62,1.66a4.91,4.91,0,0,1,.47.82,16.66,16.66,0,0,0,2.17,2.69,9.89,9.89,0,0,0,2.64,2.14,5.09,5.09,0,0,0,.81.48l1.63-1.59a.51.51,0,0,1,.61-.2,5.54,5.54,0,0,1,4.2,3.37,3.22,3.22,0,0,1,.47,1.93,4.43,4.43,0,0,1-1.49,1.93l-.2.21A2.66,2.66,0,0,1,566.84,560.8Z"/></clipPath><clipPath id="clip-path-2" transform="translate(-546 -536)"><rect class="cls-2" width="1024" height="1024"/></clipPath></defs><title>PhoneAsset 5</title><g id="Layer_2" data-name="Layer 2"><g id="Layer_1-2" data-name="Layer 1"><g class="cls-3"><g class="cls-4"><rect class="cls-5" width="29.47" height="29.8"/></g></g></g></g></svg>